<svg width="40" height="40" viewBox="0 0 40 40" fill="none" xmlns="http://www.w3.org/2000/svg">
<path d="M6.12871 6.19878L18.8032 0.533383V3.73132L6.12871 6.19878Z" stroke="#625B65"/>
<path d="M21.1968 3.59553V0.528763L33.8758 6.19406L21.2019 3.72671V3.60013L21.1968 3.59553Z" stroke="#625B65"/>
<path d="M0.172281 9.34473C0.169834 9.34481 0.167373 9.3449 0.164898 9.345L0.172367 9.34471L0.172281 9.34473ZM5.07765 25.3791L0.681795 9.38121L1.02619 9.32885V9.31037L17.5908 6.24029L5.18788 25.6725L5.16639 25.3791H5.07765Z" stroke="#625B65"/>
<path d="M34.8123 25.6685L22.4033 6.23922L38.9736 9.31037V9.32885L39.306 9.37938L39.1753 9.84497L39.1906 9.84497L34.9222 25.3791H34.8334L34.8123 25.6685ZM39.8349 9.34676V9.345V9.34676Z" stroke="#625B65"/>
<path d="M33.6699 27.35H33.6771L33.3778 27.5661L33.3055 27.6183L33.3004 27.622L33.272 27.6425C33.2705 27.6397 33.2683 27.6352 33.2659 27.6289C33.2637 27.6232 33.2618 27.617 33.2601 27.6103L33.3004 27.5847L33.3055 27.5815L33.3297 27.5661L33.6699 27.35ZM20.0124 6.76245L33.1614 27.466H6.83006L19.9767 6.77875L20.0004 6.74708L20.0124 6.76245Z" stroke="#625B65"/>
<path d="M7.93797 29.7071L32.0611 29.7116L20.1115 39.4035H20.108L19.999 39.4876L19.9393 39.445L7.93797 29.7071ZM7.68698 29.5058C7.68684 29.5057 7.68677 29.5057 7.68677 29.5057C7.68677 29.5057 7.68684 29.5057 7.68698 29.5058Z" stroke="#625B65"/>
<path d="M3.33757 28.038L1.09899 29.2299L1.05316 29.2503L0.523357 16.4844L3.33757 28.038Z" stroke="#625B65"/>
<path d="M36.657 28.0397L39.4768 16.4877L38.9469 29.2549L38.9011 29.2345L36.657 28.0397Z" stroke="#625B65"/>
<path d="M4.6854 30.0381L12.6934 36.5066L2.50277 31.1617V31.1444L2.43003 31.1084L4.43008 30.0381H4.48291L4.58341 29.9677L4.68391 30.0381H4.6854ZM13.3709 37.0667C13.371 37.0668 13.3709 37.0668 13.3709 37.0667L13.3709 37.0667Z" stroke="#625B65"/>
<path d="M27.3173 36.5066L35.3253 30.0381H35.3268L35.4273 29.9677L35.5278 30.0381H35.5806L37.5807 31.1084L37.508 31.1444V31.1617L27.3173 36.5066ZM26.6399 37.0667L26.6399 37.0667L26.6399 37.0667Z" stroke="#625B65"/>
</svg>
